<?xml version="1.0" encoding="UTF-8"?>
<svg id="Layer_1" data-name="Layer 1" xmlns="http://www.w3.org/2000/svg" viewBox="0 0 210 210">
  <defs>
    <style>
      .cls-1, .cls-2 {
        stroke: #fff;
        stroke-miterlimit: 10;
      }

      .cls-1, .cls-3 {
        fill: #fff;
      }

      .cls-2 {
        fill: none;
      }

      .cls-3 {
        stroke-width: 0px;
      }
    </style>
  </defs>
  <path class="cls-1" d="m43.59,87.45h-9.01v-12.81h37.87v12.81h-7.88l12.25,36.18,13.52-36.6h-9.29l.28-12.39h35.9v12.39l-7.88.14-28.16,73.49-1.69,3.94-2.39,3.52-3.66,3.94-3.52,2.82-2.82,1.41-3.24.84h-20.02l4.28-16.33,13.8-.28c8.25-4.47,3.88-11.99,2.37-17.7,0-.03-.02-.06-.03-.09-.64-1.7-20.68-55.29-20.68-55.29Z"/>
  <polygon class="cls-1" points="85.44 177.19 90.03 163.79 187.63 163.52 187.63 177.19 85.44 177.19"/>
  <g>
    <path class="cls-3" d="m182.28,135.66l-1.12-1.14-.53-39.98c-.82-5.24-1.89-8.14-4.17-10.81-7.99-9.36-22.61-10.06-33.6-9.51-7.91.97-13.45,3-18.92,6.71l.22,18.8,14.2.11v-.31l.03-7.46c.34-1.47,1.96-2.71,3.14-3.53,4.17-2.42,10.69-2.55,15.11-.48,2.58,1.41,4.99,4.24,5.03,7.94l.06,8.64-15.51.03c-5.01.07-10.42,2.35-14.89,4.58-8.14,4.22-12.56,12.98-11.38,22.03.68,3.05,1.98,7.27,3.99,9.66,3.42,4.06,8.31,7.9,13.78,7.89h8.93c1.57.04,5.95-.04,10.25-2.97,3.36-2.29,5.04-5.21,5.76-6.66.07.02.06.01.13.03l.05.68c.13,1.79.46,3.56.98,5.28l.82,2.72h24.2v-12.26h-6.55Zm-20.44-19.32v11.54c-.97,2.05-4.64,4.73-6.54,5.85-2.1,1.16-7.77,1.79-9.94,1.3-2.79-.63-5.64-3.12-6.16-5.98-1.15-6.29,2.91-11.56,9.01-12.87l13.64-.07v.24Z"/>
    <path class="cls-2" d="m182.28,135.66l-1.12-1.14-.53-39.98c-.82-5.24-1.89-8.14-4.17-10.81-7.99-9.36-22.61-10.06-33.6-9.51-7.91.97-13.45,3-18.92,6.71l.22,18.8,14.2.11v-.31l.03-7.46c.34-1.47,1.96-2.71,3.14-3.53,4.17-2.42,10.69-2.55,15.11-.48,2.58,1.41,4.99,4.24,5.03,7.94l.06,8.64-15.51.03c-5.01.07-10.42,2.35-14.89,4.58-8.14,4.22-12.56,12.98-11.38,22.03.68,3.05,1.98,7.27,3.99,9.66,3.42,4.06,8.31,7.9,13.78,7.89h8.93c1.57.04,5.95-.04,10.25-2.97,3.36-2.29,5.04-5.21,5.76-6.66.07.02.06.01.13.03l.05.68c.13,1.79.46,3.56.98,5.28l.82,2.72h24.2v-12.26h-6.55Zm-20.44-19.32v11.54c-.97,2.05-4.64,4.73-6.54,5.85-2.1,1.16-7.77,1.79-9.94,1.3-2.79-.63-5.64-3.12-6.16-5.98-1.15-6.29,2.91-11.56,9.01-12.87l13.64-.07v.24Z"/>
  </g>
  <polygon class="cls-1" points="22.27 59.55 22.27 46.15 188.84 45.89 188.84 59.55 22.27 59.55"/>
  <polygon class="cls-1" points="22.27 176.99 22.27 163.67 36.58 163.67 33.09 177.04 22.27 176.99"/>
</svg>